<svg xmlns="http://www.w3.org/2000/svg" xmlns:xlink="http://www.w3.org/1999/xlink" viewBox="0 0 430 430" width="430" height="430" preserveAspectRatio="xMidYMid meet" style="width: 100%; height: 100%; transform: translate3d(0px, 0px, 0px); content-visibility: visible;"><defs><clipPath id="__lottie_element_16"><rect width="430" height="430" x="0" y="0"/></clipPath><clipPath id="__lottie_element_18"><path d="M0,0 L430,0 L430,430 L0,430z"/></clipPath></defs><g clip-path="url(#__lottie_element_16)"><g clip-path="url(#__lottie_element_18)" transform="matrix(1,0,0,1,0,0)" opacity="1" style="display: block;"><g transform="matrix(-1,0,0,-1,215,215)" opacity="1" style="display: block;"><g opacity="1" transform="matrix(1,0,0,1,0,0)"><path stroke-linecap="round" stroke-linejoin="round" fill-opacity="0" class="tertiary" stroke="rgb(58,51,71)" stroke-opacity="1" stroke-width="7" d=" M150.0540008544922,-74.75 C133.0030059814453,-108.4520034790039 104.39299774169922,-136.36399841308594 70,-152.21099853515625 M-150.0540008544922,-74.25 C-134.25,-108.25 -104.39299774169922,-136.36399841308594 -70,-152.21099853515625 M-150.05499267578125,74.5 C-133.05599975585938,108.66500091552734 -104.73200225830078,136.20799255371094 -70,152.21099853515625 M150.05499267578125,74.5 C133.05599975585938,108.66500091552734 104.73200225830078,136.20799255371094 70,152.21099853515625"/></g></g><g transform="matrix(1,0,0,1,215.125,320.125)" opacity="1" style="display: block;"><g opacity="1" transform="matrix(1,0,0,1,0,0)"><path class="secondary" fill="rgb(232,183,47)" fill-opacity="1" d=" M0,22.5 C12.425999641418457,22.5 22.5,12.425999641418457 22.5,0 C22.5,-12.425999641418457 12.425999641418457,-22.5 0,-22.5 C-12.425999641418457,-22.5 -22.5,-12.425999641418457 -22.5,0 C-22.5,12.425999641418457 -12.425999641418457,22.5 0,22.5z"/></g></g><g transform="matrix(1,0,0,1,210.95599365234375,320.125)" opacity="0.5" style="mix-blend-mode: multiply; display: block;"><g opacity="1" transform="matrix(1,0,0,1,0,0)"><path class="secondary" fill="rgb(232,183,47)" fill-opacity="1" d=" M-3.3310000896453857,-5 C-3.3310000896453857,-12.0600004196167 -0.07999999821186066,-18.360000610351562 5.006999969482422,-22.485000610351562 C4.729000091552734,-22.4950008392334 4.449999809265137,-22.5 4.169000148773193,-22.5 C-8.256999969482422,-22.5 -18.33099937438965,-12.425999641418457 -18.33099937438965,0 C-18.33099937438965,12.425999641418457 -8.256999969482422,22.5 4.169000148773193,22.5 C9.53600025177002,22.5 14.46399974822998,20.621000289916992 18.33099937438965,17.485000610351562 C6.293000221252441,17.04400062561035 -3.3310000896453857,7.145999908447266 -3.3310000896453857,-5z"/></g></g><g transform="matrix(1,0,0,1,214.875,380.125)" opacity="1" style="display: block;"><g opacity="1" transform="matrix(1,0,0,1,0,0)"><path class="primary" fill="rgb(244,156,199)" fill-opacity="1" d=" M-15,-20 C-31.569000244140625,-20 -45,-6.568999767303467 -45,10 C-45,10 -45,17 -45,17 C-45,18.656999588012695 -43.65700149536133,20 -42,20 C-42,20 42,20 42,20 C43.65700149536133,20 45,18.656999588012695 45,17 C45,17 45,10 45,10 C45,-6.568999767303467 31.569000244140625,-20 15,-20 C15,-20 -15,-20 -15,-20z"/></g></g><g transform="matrix(1,0,0,1,194.875,380.125)" opacity="0.5" style="mix-blend-mode: multiply; display: block;"><g opacity="1" transform="matrix(1,0,0,1,0,0)"><path class="primary" fill="rgb(244,156,199)" fill-opacity="1" d=" M-25,10 C-25,-6.568999767303467 -11.569000244140625,-20 5,-20 C5,-20 25,-20 25,-20 C8.430999755859375,-20 -5,-6.568999767303467 -5,10 C-5,10 -5,20 -5,20 C-5,20 -22,20 -22,20 C-23.656999588012695,20 -25,18.656999588012695 -25,17 C-25,17 -25,10 -25,10z"/></g></g><g transform="matrix(1,0,0,1,215.125,35.125)" opacity="1" style="display: block;"><g opacity="1" transform="matrix(1,0,0,1,0,0)"><path class="secondary" fill="rgb(232,183,47)" fill-opacity="1" d=" M0,22.5 C12.425999641418457,22.5 22.5,12.425999641418457 22.5,0 C22.5,-12.425999641418457 12.425999641418457,-22.5 0,-22.5 C-12.425999641418457,-22.5 -22.5,-12.425999641418457 -22.5,0 C-22.5,12.425999641418457 -12.425999641418457,22.5 0,22.5z"/></g></g><g transform="matrix(1,0,0,1,210.95599365234375,35.125)" opacity="0.5" style="mix-blend-mode: multiply; display: block;"><g opacity="1" transform="matrix(1,0,0,1,0,0)"><path class="secondary" fill="rgb(232,183,47)" fill-opacity="1" d=" M-3.3310000896453857,-5 C-3.3310000896453857,-12.0600004196167 -0.07999999821186066,-18.360000610351562 5.006999969482422,-22.485000610351562 C4.729000091552734,-22.4950008392334 4.449999809265137,-22.5 4.169000148773193,-22.5 C-8.256999969482422,-22.5 -18.33099937438965,-12.425999641418457 -18.33099937438965,0 C-18.33099937438965,12.425999641418457 -8.256999969482422,22.5 4.169000148773193,22.5 C9.53600025177002,22.5 14.46399974822998,20.621000289916992 18.33099937438965,17.485000610351562 C6.293000221252441,17.04400062561035 -3.3310000896453857,7.145999908447266 -3.3310000896453857,-5z"/></g></g><g transform="matrix(1,0,0,1,214.875,95.125)" opacity="1" style="display: block;"><g opacity="1" transform="matrix(1,0,0,1,0,0)"><path class="primary" fill="rgb(244,156,199)" fill-opacity="1" d=" M-15,-20 C-31.569000244140625,-20 -45,-6.568999767303467 -45,10 C-45,10 -45,17 -45,17 C-45,18.656999588012695 -43.65700149536133,20 -42,20 C-42,20 42,20 42,20 C43.65700149536133,20 45,18.656999588012695 45,17 C45,17 45,10 45,10 C45,-6.568999767303467 31.569000244140625,-20 15,-20 C15,-20 -15,-20 -15,-20z"/></g></g><g transform="matrix(1,0,0,1,194.875,95.125)" opacity="0.5" style="mix-blend-mode: multiply; display: block;"><g opacity="1" transform="matrix(1,0,0,1,0,0)"><path class="primary" fill="rgb(244,156,199)" fill-opacity="1" d=" M-25,10 C-25,-6.568999767303467 -11.569000244140625,-20 5,-20 C5,-20 25,-20 25,-20 C8.430999755859375,-20 -5,-6.568999767303467 -5,10 C-5,10 -5,20 -5,20 C-5,20 -22,20 -22,20 C-23.656999588012695,20 -25,18.656999588012695 -25,17 C-25,17 -25,10 -25,10z"/></g></g><g transform="matrix(1,0,0,1,370.25,185)" opacity="1" style="display: block;"><g opacity="1" transform="matrix(1,0,0,1,0,0)"><path class="secondary" fill="rgb(232,183,47)" fill-opacity="1" d=" M0,22.5 C12.425999641418457,22.5 22.5,12.425999641418457 22.5,0 C22.5,-12.425999641418457 12.425999641418457,-22.5 0,-22.5 C-12.425999641418457,-22.5 -22.5,-12.425999641418457 -22.5,0 C-22.5,12.425999641418457 -12.425999641418457,22.5 0,22.5z"/></g></g><g transform="matrix(1,0,0,1,366.08099365234375,185)" opacity="0.5" style="mix-blend-mode: multiply; display: block;"><g opacity="1" transform="matrix(1,0,0,1,0,0)"><path class="secondary" fill="rgb(232,183,47)" fill-opacity="1" d=" M-3.3310000896453857,-5 C-3.3310000896453857,-12.0600004196167 -0.07999999821186066,-18.360000610351562 5.006999969482422,-22.485000610351562 C4.729000091552734,-22.4950008392334 4.449999809265137,-22.5 4.169000148773193,-22.5 C-8.256999969482422,-22.5 -18.33099937438965,-12.425999641418457 -18.33099937438965,0 C-18.33099937438965,12.425999641418457 -8.256999969482422,22.5 4.169000148773193,22.5 C9.53600025177002,22.5 14.46399974822998,20.621000289916992 18.33099937438965,17.485000610351562 C6.293000221252441,17.04400062561035 -3.3310000896453857,7.145999908447266 -3.3310000896453857,-5z"/></g></g><g transform="matrix(1,0,0,1,370,245)" opacity="1" style="display: block;"><g opacity="1" transform="matrix(1,0,0,1,0,0)"><path class="primary" fill="rgb(244,156,199)" fill-opacity="1" d=" M-15,-20 C-31.569000244140625,-20 -45,-6.568999767303467 -45,10 C-45,10 -45,17 -45,17 C-45,18.656999588012695 -43.65700149536133,20 -42,20 C-42,20 42,20 42,20 C43.65700149536133,20 45,18.656999588012695 45,17 C45,17 45,10 45,10 C45,-6.568999767303467 31.569000244140625,-20 15,-20 C15,-20 -15,-20 -15,-20z"/></g></g><g transform="matrix(1,0,0,1,350,245)" opacity="0.5" style="mix-blend-mode: multiply; display: block;"><g opacity="1" transform="matrix(1,0,0,1,0,0)"><path class="primary" fill="rgb(244,156,199)" fill-opacity="1" d=" M-25,10 C-25,-6.568999767303467 -11.569000244140625,-20 5,-20 C5,-20 25,-20 25,-20 C8.430999755859375,-20 -5,-6.568999767303467 -5,10 C-5,10 -5,20 -5,20 C-5,20 -22,20 -22,20 C-23.656999588012695,20 -25,18.656999588012695 -25,17 C-25,17 -25,10 -25,10z"/></g></g><g transform="matrix(1,0,0,1,60.25,185)" opacity="1" style="display: block;"><g opacity="1" transform="matrix(1,0,0,1,0,0)"><path class="secondary" fill="rgb(232,183,47)" fill-opacity="1" d=" M0,22.5 C12.425999641418457,22.5 22.5,12.425999641418457 22.5,0 C22.5,-12.425999641418457 12.425999641418457,-22.5 0,-22.5 C-12.425999641418457,-22.5 -22.5,-12.425999641418457 -22.5,0 C-22.5,12.425999641418457 -12.425999641418457,22.5 0,22.5z"/></g></g><g transform="matrix(1,0,0,1,56.08099365234375,185)" opacity="0.5" style="mix-blend-mode: multiply; display: block;"><g opacity="1" transform="matrix(1,0,0,1,0,0)"><path class="secondary" fill="rgb(232,183,47)" fill-opacity="1" d=" M-3.3310000896453857,-5 C-3.3310000896453857,-12.0600004196167 -0.07999999821186066,-18.360000610351562 5.006999969482422,-22.485000610351562 C4.729000091552734,-22.4950008392334 4.449999809265137,-22.5 4.169000148773193,-22.5 C-8.256999969482422,-22.5 -18.33099937438965,-12.425999641418457 -18.33099937438965,0 C-18.33099937438965,12.425999641418457 -8.256999969482422,22.5 4.169000148773193,22.5 C9.53600025177002,22.5 14.46399974822998,20.621000289916992 18.33099937438965,17.485000610351562 C6.293000221252441,17.04400062561035 -3.3310000896453857,7.145999908447266 -3.3310000896453857,-5z"/></g></g><g transform="matrix(1,0,0,1,60,245)" opacity="1" style="display: block;"><g opacity="1" transform="matrix(1,0,0,1,0,0)"><path class="primary" fill="rgb(244,156,199)" fill-opacity="1" d=" M-15,-20 C-31.569000244140625,-20 -45,-6.568999767303467 -45,10 C-45,10 -45,17 -45,17 C-45,18.656999588012695 -43.65700149536133,20 -42,20 C-42,20 42,20 42,20 C43.65700149536133,20 45,18.656999588012695 45,17 C45,17 45,10 45,10 C45,-6.568999767303467 31.569000244140625,-20 15,-20 C15,-20 -15,-20 -15,-20z"/></g></g><g transform="matrix(1,0,0,1,40,245)" opacity="0.5" style="mix-blend-mode: multiply; display: block;"><g opacity="1" transform="matrix(1,0,0,1,0,0)"><path class="primary" fill="rgb(244,156,199)" fill-opacity="1" d=" M-25,10 C-25,-6.568999767303467 -11.569000244140625,-20 5,-20 C5,-20 25,-20 25,-20 C8.430999755859375,-20 -5,-6.568999767303467 -5,10 C-5,10 -5,20 -5,20 C-5,20 -22,20 -22,20 C-23.656999588012695,20 -25,18.656999588012695 -25,17 C-25,17 -25,10 -25,10z"/></g></g><g transform="matrix(1,0,0,1,215,203)" opacity="1" style="display: block;"><g opacity="1" transform="matrix(1,0,0,1,0,0)"><path class="secondary" fill="rgb(232,183,47)" fill-opacity="1" d=" M20.36400032043457,20.9689998626709 C18.937000274658203,21.990999221801758 18,23.597000122070312 18,25.351999282836914 C18,25.351999282836914 18,42.5 18,42.5 C18,42.5 -17,42.5 -17,42.5 C-17,42.5 -17,26.040000915527344 -17,26.040000915527344 C-17,24.22599983215332 -17.999000549316406,22.57699966430664 -19.5049991607666,21.565000534057617 C-28.85099983215332,15.281000137329102 -35,4.609000205993652 -35,-7.5 C-35,-26.829999923706055 -19.329999923706055,-42.5 0,-42.5 C19.329999923706055,-42.5 35,-26.829999923706055 35,-7.5 C35,4.234000205993652 29.22599983215332,14.619000434875488 20.36400032043457,20.9689998626709z"/></g></g><g transform="matrix(1,0,0,1,196.5,202.8260040283203)" opacity="1" style="mix-blend-mode: multiply; display: block;"><g opacity="1" transform="matrix(1,0,0,1,0,0)"><path class="secondary" fill="rgb(232,183,47)" fill-opacity="0.5" d=" M-1.5,-12.326000213623047 C-1.5,-24.952999114990234 5.185999870300293,-36.018001556396484 15.211000442504883,-42.17399978637695 C-2.5769999027252197,-40.51599884033203 -16.5,-25.547000885009766 -16.5,-7.326000213623047 C-16.5,4.7829999923706055 -10.35099983215332,15.454999923706055 -1.0049999952316284,21.73900032043457 C0.5009999871253967,22.750999450683594 1.5,24.399999618530273 1.5,26.214000701904297 C1.5,26.214000701904297 1.5,42.17399978637695 1.5,42.17399978637695 C1.5,42.17399978637695 16.5,42.17399978637695 16.5,42.17399978637695 C16.5,42.17399978637695 16.5,21.214000701904297 16.5,21.214000701904297 C16.5,19.399999618530273 15.50100040435791,17.750999450683594 13.994999885559082,16.73900032043457 C4.64900016784668,10.454999923706055 -1.5,-0.21699999272823334 -1.5,-12.326000213623047z"/></g></g><g transform="matrix(1,0,0,1,215.5,252.75)" opacity="1" style="display: block;"><g opacity="1" transform="matrix(1,0,0,1,0,0)"><path class="quaternary" fill="rgb(235,230,239)" fill-opacity="1" d=" M-17.5,-2.25 C-17.5,-2.25 -17.5,-12.75 -17.5,-12.75 C-17.5,-12.75 17.5,-12.75 17.5,-12.75 C17.5,-12.75 17.5,-2.25 17.5,-2.25 C17.5,6.033999919891357 10.784000396728516,12.75 2.5,12.75 C2.5,12.75 -2.5,12.75 -2.5,12.75 C-10.784000396728516,12.75 -17.5,6.033999919891357 -17.5,-2.25z"/></g></g><g transform="matrix(1,0,0,1,210.5,252.75)" opacity="1" style="display: block;"><g opacity="1" transform="matrix(1,0,0,1,0,0)"><path class="quaternary" fill="rgb(235,230,239)" fill-opacity="1" d=" M-12.5,-12.75 C-12.5,-12.75 -12.5,-2.25 -12.5,-2.25 C-12.5,6.033999919891357 -5.783999919891357,12.75 2.5,12.75 C2.5,12.75 7.5,12.75 7.5,12.75 C9.253000259399414,12.75 10.935999870300293,12.449000358581543 12.5,11.895999908447266 C6.673999786376953,9.836999893188477 2.5,4.281000137329102 2.5,-2.25 C2.5,-2.25 2.5,-12.75 2.5,-12.75 C2.5,-12.75 -12.5,-12.75 -12.5,-12.75z"/><path class="quaternary" fill="rgb(235,230,239)" fill-opacity="0.5" d=" M-12.5,-12.75 C-12.5,-12.75 -12.5,-2.25 -12.5,-2.25 C-12.5,6.033999919891357 -5.783999919891357,12.75 2.5,12.75 C2.5,12.75 7.5,12.75 7.5,12.75 C9.253000259399414,12.75 10.935999870300293,12.449000358581543 12.5,11.895999908447266 C6.673999786376953,9.836999893188477 2.5,4.281000137329102 2.5,-2.25 C2.5,-2.25 2.5,-12.75 2.5,-12.75 C2.5,-12.75 -12.5,-12.75 -12.5,-12.75z" style="mix-blend-mode: multiply;"/></g></g><g transform="matrix(-0.4399999976158142,0,0,-0.4399999976158142,155.5800018310547,192.5)" opacity="1" style="display: none;"><g opacity="1" transform="matrix(1,0,0,1,0,0)"><path stroke-linecap="round" stroke-linejoin="round" fill-opacity="0" class="secondary" stroke="rgb(232,183,47)" stroke-opacity="1" stroke-width="7" d="M0 0"/></g></g><g transform="matrix(-0.3111269772052765,-0.3111269772052765,0.3111269772052765,-0.3111269772052765,173.13058471679688,150.13058471679688)" opacity="1" style="display: none;"><g opacity="1" transform="matrix(1,0,0,1,0,0)"><path stroke-linecap="round" stroke-linejoin="round" fill-opacity="0" class="secondary" stroke="rgb(232,183,47)" stroke-opacity="1" stroke-width="7" d="M0 0"/></g></g><g transform="matrix(0,-0.4399999976158142,0.4399999976158142,0,215.5,132.5800018310547)" opacity="1" style="display: none;"><g opacity="1" transform="matrix(1,0,0,1,0,0)"><path stroke-linecap="round" stroke-linejoin="round" fill-opacity="0" class="secondary" stroke="rgb(232,183,47)" stroke-opacity="1" stroke-width="7" d="M0 0"/></g></g><g transform="matrix(0.3111269772052765,-0.3111269772052765,0.3111269772052765,0.3111269772052765,257.8694152832031,150.13058471679688)" opacity="1" style="display: none;"><g opacity="1" transform="matrix(1,0,0,1,0,0)"><path stroke-linecap="round" stroke-linejoin="round" fill-opacity="0" class="secondary" stroke="rgb(232,183,47)" stroke-opacity="1" stroke-width="7" d="M0 0"/></g></g><g transform="matrix(0.4399999976158142,0,0,0.4399999976158142,275.4200134277344,192.5)" opacity="1" style="display: none;"><g opacity="1" transform="matrix(1,0,0,1,0,0)"><path stroke-linecap="round" stroke-linejoin="round" fill-opacity="0" class="secondary" stroke="rgb(232,183,47)" stroke-opacity="1" stroke-width="7" d="M0 0"/></g></g></g></g></svg>